<mxfile host="app.diagrams.net" modified="2024-03-09T13:55:43.291Z" agent="Mozilla/5.0 (X11; Linux x86_64) AppleWebKit/537.36 (KHTML, like Gecko) Chrome/121.0.0.0 Safari/537.36" etag="8bP5i-SPC2orKyetDuZq" version="24.0.3" type="device">
  <diagram name="Page-1" id="VitabdQBxzBvYJpSW8bL">
    <mxGraphModel dx="2284" dy="776" grid="1" gridSize="10" guides="1" tooltips="1" connect="1" arrows="1" fold="1" page="1" pageScale="1" pageWidth="850" pageHeight="1100" math="0" shadow="0">
      <root>
        <mxCell id="0" />
        <mxCell id="1" parent="0" />
        <mxCell id="RAgE10tFo2IL5p6Xvea5-28" style="edgeStyle=none;curved=1;rounded=0;orthogonalLoop=1;jettySize=auto;html=1;entryX=0.5;entryY=0;entryDx=0;entryDy=0;fontSize=12;startSize=8;endSize=8;" edge="1" parent="1" source="RAgE10tFo2IL5p6Xvea5-1" target="RAgE10tFo2IL5p6Xvea5-5">
          <mxGeometry relative="1" as="geometry">
            <Array as="points">
              <mxPoint x="-180" y="820" />
            </Array>
          </mxGeometry>
        </mxCell>
        <mxCell id="RAgE10tFo2IL5p6Xvea5-29" style="edgeStyle=none;curved=1;rounded=0;orthogonalLoop=1;jettySize=auto;html=1;entryX=0;entryY=0.5;entryDx=0;entryDy=0;fontSize=12;startSize=8;endSize=8;" edge="1" parent="1" source="RAgE10tFo2IL5p6Xvea5-1" target="RAgE10tFo2IL5p6Xvea5-6">
          <mxGeometry relative="1" as="geometry">
            <Array as="points">
              <mxPoint x="-300" y="850" />
            </Array>
          </mxGeometry>
        </mxCell>
        <mxCell id="RAgE10tFo2IL5p6Xvea5-1" value="Планирование" style="rounded=1;whiteSpace=wrap;html=1;" vertex="1" parent="1">
          <mxGeometry x="-160" y="730" width="120" height="60" as="geometry" />
        </mxCell>
        <mxCell id="RAgE10tFo2IL5p6Xvea5-30" style="edgeStyle=none;curved=1;rounded=0;orthogonalLoop=1;jettySize=auto;html=1;fontSize=12;startSize=8;endSize=8;" edge="1" parent="1" source="RAgE10tFo2IL5p6Xvea5-2" target="RAgE10tFo2IL5p6Xvea5-8">
          <mxGeometry relative="1" as="geometry">
            <Array as="points">
              <mxPoint x="150" y="810" />
            </Array>
          </mxGeometry>
        </mxCell>
        <mxCell id="RAgE10tFo2IL5p6Xvea5-31" style="edgeStyle=none;curved=1;rounded=0;orthogonalLoop=1;jettySize=auto;html=1;entryX=0;entryY=0.5;entryDx=0;entryDy=0;fontSize=12;startSize=8;endSize=8;" edge="1" parent="1" source="RAgE10tFo2IL5p6Xvea5-2" target="RAgE10tFo2IL5p6Xvea5-9">
          <mxGeometry relative="1" as="geometry">
            <Array as="points">
              <mxPoint x="40" y="850" />
            </Array>
          </mxGeometry>
        </mxCell>
        <mxCell id="RAgE10tFo2IL5p6Xvea5-32" style="edgeStyle=none;curved=1;rounded=0;orthogonalLoop=1;jettySize=auto;html=1;entryX=0;entryY=0.5;entryDx=0;entryDy=0;fontSize=12;startSize=8;endSize=8;" edge="1" parent="1" source="RAgE10tFo2IL5p6Xvea5-2" target="RAgE10tFo2IL5p6Xvea5-7">
          <mxGeometry relative="1" as="geometry">
            <Array as="points">
              <mxPoint y="880" />
            </Array>
          </mxGeometry>
        </mxCell>
        <mxCell id="RAgE10tFo2IL5p6Xvea5-33" style="edgeStyle=none;curved=1;rounded=0;orthogonalLoop=1;jettySize=auto;html=1;entryX=0;entryY=0.5;entryDx=0;entryDy=0;fontSize=12;startSize=8;endSize=8;" edge="1" parent="1" source="RAgE10tFo2IL5p6Xvea5-2" target="RAgE10tFo2IL5p6Xvea5-13">
          <mxGeometry relative="1" as="geometry">
            <Array as="points">
              <mxPoint y="900" />
            </Array>
          </mxGeometry>
        </mxCell>
        <mxCell id="RAgE10tFo2IL5p6Xvea5-35" style="edgeStyle=none;curved=1;rounded=0;orthogonalLoop=1;jettySize=auto;html=1;entryX=0;entryY=0.5;entryDx=0;entryDy=0;fontSize=12;startSize=8;endSize=8;" edge="1" parent="1" source="RAgE10tFo2IL5p6Xvea5-2" target="RAgE10tFo2IL5p6Xvea5-14">
          <mxGeometry relative="1" as="geometry">
            <Array as="points">
              <mxPoint y="890" />
            </Array>
          </mxGeometry>
        </mxCell>
        <mxCell id="RAgE10tFo2IL5p6Xvea5-2" value="Постановка" style="rounded=1;whiteSpace=wrap;html=1;" vertex="1" parent="1">
          <mxGeometry x="100" y="730" width="120" height="60" as="geometry" />
        </mxCell>
        <mxCell id="RAgE10tFo2IL5p6Xvea5-55" style="edgeStyle=none;curved=1;rounded=0;orthogonalLoop=1;jettySize=auto;html=1;entryX=0;entryY=0.5;entryDx=0;entryDy=0;fontSize=12;startSize=8;endSize=8;" edge="1" parent="1" source="RAgE10tFo2IL5p6Xvea5-3" target="RAgE10tFo2IL5p6Xvea5-36">
          <mxGeometry relative="1" as="geometry">
            <Array as="points">
              <mxPoint x="440" y="810" />
            </Array>
          </mxGeometry>
        </mxCell>
        <mxCell id="RAgE10tFo2IL5p6Xvea5-56" style="edgeStyle=none;curved=1;rounded=0;orthogonalLoop=1;jettySize=auto;html=1;entryX=0;entryY=0.5;entryDx=0;entryDy=0;fontSize=12;startSize=8;endSize=8;" edge="1" parent="1" source="RAgE10tFo2IL5p6Xvea5-3" target="RAgE10tFo2IL5p6Xvea5-37">
          <mxGeometry relative="1" as="geometry">
            <Array as="points">
              <mxPoint x="430" y="820" />
            </Array>
          </mxGeometry>
        </mxCell>
        <mxCell id="RAgE10tFo2IL5p6Xvea5-57" style="edgeStyle=none;curved=1;rounded=0;orthogonalLoop=1;jettySize=auto;html=1;entryX=0;entryY=0.5;entryDx=0;entryDy=0;fontSize=12;startSize=8;endSize=8;" edge="1" parent="1" source="RAgE10tFo2IL5p6Xvea5-3" target="RAgE10tFo2IL5p6Xvea5-51">
          <mxGeometry relative="1" as="geometry">
            <Array as="points">
              <mxPoint x="410" y="840" />
            </Array>
          </mxGeometry>
        </mxCell>
        <mxCell id="RAgE10tFo2IL5p6Xvea5-58" style="edgeStyle=none;curved=1;rounded=0;orthogonalLoop=1;jettySize=auto;html=1;entryX=0;entryY=0.5;entryDx=0;entryDy=0;fontSize=12;startSize=8;endSize=8;" edge="1" parent="1" source="RAgE10tFo2IL5p6Xvea5-3" target="RAgE10tFo2IL5p6Xvea5-52">
          <mxGeometry relative="1" as="geometry">
            <Array as="points">
              <mxPoint x="400" y="880" />
            </Array>
          </mxGeometry>
        </mxCell>
        <mxCell id="RAgE10tFo2IL5p6Xvea5-59" style="edgeStyle=none;curved=1;rounded=0;orthogonalLoop=1;jettySize=auto;html=1;entryX=0;entryY=0.5;entryDx=0;entryDy=0;fontSize=12;startSize=8;endSize=8;" edge="1" parent="1" source="RAgE10tFo2IL5p6Xvea5-3" target="RAgE10tFo2IL5p6Xvea5-53">
          <mxGeometry relative="1" as="geometry">
            <Array as="points">
              <mxPoint x="390" y="920" />
            </Array>
          </mxGeometry>
        </mxCell>
        <mxCell id="RAgE10tFo2IL5p6Xvea5-61" style="edgeStyle=none;curved=1;rounded=0;orthogonalLoop=1;jettySize=auto;html=1;entryX=0;entryY=0.5;entryDx=0;entryDy=0;fontSize=12;startSize=8;endSize=8;" edge="1" parent="1" source="RAgE10tFo2IL5p6Xvea5-3" target="RAgE10tFo2IL5p6Xvea5-60">
          <mxGeometry relative="1" as="geometry">
            <Array as="points">
              <mxPoint x="390" y="930" />
            </Array>
          </mxGeometry>
        </mxCell>
        <mxCell id="RAgE10tFo2IL5p6Xvea5-3" value="Реализация" style="rounded=1;whiteSpace=wrap;html=1;" vertex="1" parent="1">
          <mxGeometry x="480" y="730" width="120" height="60" as="geometry" />
        </mxCell>
        <mxCell id="RAgE10tFo2IL5p6Xvea5-45" style="edgeStyle=none;curved=1;rounded=0;orthogonalLoop=1;jettySize=auto;html=1;entryX=0.5;entryY=0;entryDx=0;entryDy=0;fontSize=12;startSize=8;endSize=8;" edge="1" parent="1" source="RAgE10tFo2IL5p6Xvea5-4" target="RAgE10tFo2IL5p6Xvea5-38">
          <mxGeometry relative="1" as="geometry">
            <Array as="points">
              <mxPoint x="990" y="810" />
            </Array>
          </mxGeometry>
        </mxCell>
        <mxCell id="RAgE10tFo2IL5p6Xvea5-46" style="edgeStyle=none;curved=1;rounded=0;orthogonalLoop=1;jettySize=auto;html=1;entryX=0;entryY=0.5;entryDx=0;entryDy=0;fontSize=12;startSize=8;endSize=8;" edge="1" parent="1" source="RAgE10tFo2IL5p6Xvea5-4" target="RAgE10tFo2IL5p6Xvea5-39">
          <mxGeometry relative="1" as="geometry">
            <Array as="points">
              <mxPoint x="890" y="860" />
            </Array>
          </mxGeometry>
        </mxCell>
        <mxCell id="RAgE10tFo2IL5p6Xvea5-47" style="edgeStyle=none;curved=1;rounded=0;orthogonalLoop=1;jettySize=auto;html=1;entryX=0;entryY=0.5;entryDx=0;entryDy=0;fontSize=12;startSize=8;endSize=8;" edge="1" parent="1" source="RAgE10tFo2IL5p6Xvea5-4" target="RAgE10tFo2IL5p6Xvea5-40">
          <mxGeometry relative="1" as="geometry">
            <Array as="points">
              <mxPoint x="870" y="880" />
            </Array>
          </mxGeometry>
        </mxCell>
        <mxCell id="RAgE10tFo2IL5p6Xvea5-48" style="edgeStyle=none;curved=1;rounded=0;orthogonalLoop=1;jettySize=auto;html=1;entryX=0;entryY=0.5;entryDx=0;entryDy=0;fontSize=12;startSize=8;endSize=8;" edge="1" parent="1" source="RAgE10tFo2IL5p6Xvea5-4" target="RAgE10tFo2IL5p6Xvea5-41">
          <mxGeometry relative="1" as="geometry">
            <Array as="points">
              <mxPoint x="860" y="900" />
            </Array>
          </mxGeometry>
        </mxCell>
        <mxCell id="RAgE10tFo2IL5p6Xvea5-49" style="edgeStyle=none;curved=1;rounded=0;orthogonalLoop=1;jettySize=auto;html=1;entryX=0;entryY=0.5;entryDx=0;entryDy=0;fontSize=12;startSize=8;endSize=8;" edge="1" parent="1" source="RAgE10tFo2IL5p6Xvea5-4" target="RAgE10tFo2IL5p6Xvea5-43">
          <mxGeometry relative="1" as="geometry">
            <Array as="points">
              <mxPoint x="830" y="930" />
            </Array>
          </mxGeometry>
        </mxCell>
        <mxCell id="RAgE10tFo2IL5p6Xvea5-50" style="edgeStyle=none;curved=1;rounded=0;orthogonalLoop=1;jettySize=auto;html=1;entryX=0;entryY=0.5;entryDx=0;entryDy=0;fontSize=12;startSize=8;endSize=8;" edge="1" parent="1" source="RAgE10tFo2IL5p6Xvea5-4" target="RAgE10tFo2IL5p6Xvea5-44">
          <mxGeometry relative="1" as="geometry">
            <Array as="points">
              <mxPoint x="840" y="940" />
            </Array>
          </mxGeometry>
        </mxCell>
        <mxCell id="RAgE10tFo2IL5p6Xvea5-4" value="Оценивание" style="rounded=1;whiteSpace=wrap;html=1;" vertex="1" parent="1">
          <mxGeometry x="945" y="730" width="120" height="60" as="geometry" />
        </mxCell>
        <mxCell id="RAgE10tFo2IL5p6Xvea5-21" style="edgeStyle=none;curved=1;rounded=0;orthogonalLoop=1;jettySize=auto;html=1;fontSize=12;startSize=8;endSize=8;" edge="1" parent="1" source="RAgE10tFo2IL5p6Xvea5-5" target="RAgE10tFo2IL5p6Xvea5-20">
          <mxGeometry relative="1" as="geometry" />
        </mxCell>
        <mxCell id="RAgE10tFo2IL5p6Xvea5-5" value="Отделение срочных задач, остальные записывать в беклог" style="rounded=0;whiteSpace=wrap;html=1;" vertex="1" parent="1">
          <mxGeometry x="-245" y="860" width="120" height="60" as="geometry" />
        </mxCell>
        <mxCell id="RAgE10tFo2IL5p6Xvea5-6" value="Запись формулировки задачи в произвольной форме" style="rounded=0;whiteSpace=wrap;html=1;" vertex="1" parent="1">
          <mxGeometry x="-260" y="950" width="170" height="60" as="geometry" />
        </mxCell>
        <mxCell id="RAgE10tFo2IL5p6Xvea5-7" value="Назначение ответственного" style="rounded=0;whiteSpace=wrap;html=1;" vertex="1" parent="1">
          <mxGeometry x="100" y="1160" width="120" height="60" as="geometry" />
        </mxCell>
        <mxCell id="RAgE10tFo2IL5p6Xvea5-8" value="Создание новой задачи в таск-менеджере команды" style="rounded=0;whiteSpace=wrap;html=1;" vertex="1" parent="1">
          <mxGeometry x="100" y="830" width="120" height="60" as="geometry" />
        </mxCell>
        <mxCell id="RAgE10tFo2IL5p6Xvea5-11" style="edgeStyle=none;curved=1;rounded=0;orthogonalLoop=1;jettySize=auto;html=1;fontSize=12;startSize=8;endSize=8;" edge="1" parent="1" source="RAgE10tFo2IL5p6Xvea5-9" target="RAgE10tFo2IL5p6Xvea5-10">
          <mxGeometry relative="1" as="geometry" />
        </mxCell>
        <mxCell id="RAgE10tFo2IL5p6Xvea5-19" style="edgeStyle=none;curved=1;rounded=0;orthogonalLoop=1;jettySize=auto;html=1;entryX=0;entryY=0.5;entryDx=0;entryDy=0;fontSize=12;startSize=8;endSize=8;" edge="1" parent="1" source="RAgE10tFo2IL5p6Xvea5-9" target="RAgE10tFo2IL5p6Xvea5-12">
          <mxGeometry relative="1" as="geometry" />
        </mxCell>
        <mxCell id="RAgE10tFo2IL5p6Xvea5-9" value="Создание полного описания задачи" style="rounded=0;whiteSpace=wrap;html=1;" vertex="1" parent="1">
          <mxGeometry x="100" y="920" width="120" height="60" as="geometry" />
        </mxCell>
        <mxCell id="RAgE10tFo2IL5p6Xvea5-10" value="Описание методов её решения (ссылок на ресурсы и статьи)" style="rounded=0;whiteSpace=wrap;html=1;" vertex="1" parent="1">
          <mxGeometry x="300" y="890" width="120" height="60" as="geometry" />
        </mxCell>
        <mxCell id="RAgE10tFo2IL5p6Xvea5-12" value="Сбор необходимых материаллов для её решения (макет для верстки html страниц)" style="rounded=0;whiteSpace=wrap;html=1;" vertex="1" parent="1">
          <mxGeometry x="300" y="970" width="130" height="60" as="geometry" />
        </mxCell>
        <mxCell id="RAgE10tFo2IL5p6Xvea5-16" style="edgeStyle=none;curved=1;rounded=0;orthogonalLoop=1;jettySize=auto;html=1;entryX=0;entryY=0.5;entryDx=0;entryDy=0;fontSize=12;startSize=8;endSize=8;exitX=1;exitY=0.25;exitDx=0;exitDy=0;" edge="1" parent="1" source="RAgE10tFo2IL5p6Xvea5-13" target="RAgE10tFo2IL5p6Xvea5-15">
          <mxGeometry relative="1" as="geometry" />
        </mxCell>
        <mxCell id="RAgE10tFo2IL5p6Xvea5-18" style="edgeStyle=none;curved=1;rounded=0;orthogonalLoop=1;jettySize=auto;html=1;entryX=0;entryY=0.5;entryDx=0;entryDy=0;fontSize=12;startSize=8;endSize=8;exitX=1;exitY=0.75;exitDx=0;exitDy=0;" edge="1" parent="1" source="RAgE10tFo2IL5p6Xvea5-13" target="RAgE10tFo2IL5p6Xvea5-17">
          <mxGeometry relative="1" as="geometry" />
        </mxCell>
        <mxCell id="RAgE10tFo2IL5p6Xvea5-13" value="Командное оценивание времени, и постановка четких сроков" style="rounded=0;whiteSpace=wrap;html=1;" vertex="1" parent="1">
          <mxGeometry x="100" y="1090" width="170" height="60" as="geometry" />
        </mxCell>
        <mxCell id="RAgE10tFo2IL5p6Xvea5-14" value="Составление чек-листа для возможности проверки исполнителем выполнения 100% поставленной задачи" style="rounded=0;whiteSpace=wrap;html=1;" vertex="1" parent="1">
          <mxGeometry x="100" y="1240" width="190" height="60" as="geometry" />
        </mxCell>
        <mxCell id="RAgE10tFo2IL5p6Xvea5-15" value="Оценивание сложности задачи по бальной системе (от 0 до 10)" style="rounded=0;whiteSpace=wrap;html=1;" vertex="1" parent="1">
          <mxGeometry x="305" y="1040" width="120" height="60" as="geometry" />
        </mxCell>
        <mxCell id="RAgE10tFo2IL5p6Xvea5-17" value="Форс-мажорные обстоятельства" style="rounded=0;whiteSpace=wrap;html=1;" vertex="1" parent="1">
          <mxGeometry x="305" y="1130" width="120" height="60" as="geometry" />
        </mxCell>
        <mxCell id="RAgE10tFo2IL5p6Xvea5-20" value="Выделение задач, влияющих на приближение к MVP" style="rounded=0;whiteSpace=wrap;html=1;" vertex="1" parent="1">
          <mxGeometry x="-100" y="860" width="120" height="60" as="geometry" />
        </mxCell>
        <mxCell id="RAgE10tFo2IL5p6Xvea5-24" style="edgeStyle=none;curved=1;rounded=0;orthogonalLoop=1;jettySize=auto;html=1;entryX=0.5;entryY=0;entryDx=0;entryDy=0;fontSize=12;startSize=8;endSize=8;" edge="1" parent="1" source="RAgE10tFo2IL5p6Xvea5-22" target="RAgE10tFo2IL5p6Xvea5-1">
          <mxGeometry relative="1" as="geometry" />
        </mxCell>
        <mxCell id="RAgE10tFo2IL5p6Xvea5-25" style="edgeStyle=none;curved=1;rounded=0;orthogonalLoop=1;jettySize=auto;html=1;entryX=0.5;entryY=0;entryDx=0;entryDy=0;fontSize=12;startSize=8;endSize=8;" edge="1" parent="1" source="RAgE10tFo2IL5p6Xvea5-22" target="RAgE10tFo2IL5p6Xvea5-2">
          <mxGeometry relative="1" as="geometry" />
        </mxCell>
        <mxCell id="RAgE10tFo2IL5p6Xvea5-26" style="edgeStyle=none;curved=1;rounded=0;orthogonalLoop=1;jettySize=auto;html=1;entryX=0.5;entryY=0;entryDx=0;entryDy=0;fontSize=12;startSize=8;endSize=8;" edge="1" parent="1" source="RAgE10tFo2IL5p6Xvea5-22" target="RAgE10tFo2IL5p6Xvea5-3">
          <mxGeometry relative="1" as="geometry" />
        </mxCell>
        <mxCell id="RAgE10tFo2IL5p6Xvea5-27" style="edgeStyle=none;curved=1;rounded=0;orthogonalLoop=1;jettySize=auto;html=1;entryX=0.5;entryY=0;entryDx=0;entryDy=0;fontSize=12;startSize=8;endSize=8;" edge="1" parent="1" source="RAgE10tFo2IL5p6Xvea5-22" target="RAgE10tFo2IL5p6Xvea5-4">
          <mxGeometry relative="1" as="geometry" />
        </mxCell>
        <mxCell id="RAgE10tFo2IL5p6Xvea5-22" value="Отсутствие контроля за выполнением задач" style="rounded=0;whiteSpace=wrap;html=1;" vertex="1" parent="1">
          <mxGeometry x="125" y="610" width="180" height="60" as="geometry" />
        </mxCell>
        <mxCell id="RAgE10tFo2IL5p6Xvea5-23" value="Что нужно сделать, чтобы снизить этот риск?" style="text;whiteSpace=wrap;" vertex="1" parent="1">
          <mxGeometry x="85" y="580" width="280" height="40" as="geometry" />
        </mxCell>
        <mxCell id="RAgE10tFo2IL5p6Xvea5-36" value="Отслеживание времени, затрачиваемого на выполнении задачи" style="rounded=0;whiteSpace=wrap;html=1;" vertex="1" parent="1">
          <mxGeometry x="480" y="820" width="140" height="60" as="geometry" />
        </mxCell>
        <mxCell id="RAgE10tFo2IL5p6Xvea5-37" value="Ведение календаря разработки" style="rounded=0;whiteSpace=wrap;html=1;" vertex="1" parent="1">
          <mxGeometry x="480" y="900" width="140" height="60" as="geometry" />
        </mxCell>
        <mxCell id="RAgE10tFo2IL5p6Xvea5-38" value="Командное оценивания задачи по чек-листу" style="rounded=0;whiteSpace=wrap;html=1;" vertex="1" parent="1">
          <mxGeometry x="945" y="830" width="120" height="60" as="geometry" />
        </mxCell>
        <mxCell id="RAgE10tFo2IL5p6Xvea5-39" value="Запись не критичных недочетов в беклог" style="rounded=0;whiteSpace=wrap;html=1;" vertex="1" parent="1">
          <mxGeometry x="945" y="910" width="120" height="60" as="geometry" />
        </mxCell>
        <mxCell id="RAgE10tFo2IL5p6Xvea5-40" value="Отправка задачи на доработку при необходимости" style="rounded=0;whiteSpace=wrap;html=1;" vertex="1" parent="1">
          <mxGeometry x="945" y="1000" width="155" height="60" as="geometry" />
        </mxCell>
        <mxCell id="RAgE10tFo2IL5p6Xvea5-41" value="Добавление выполненой задачи в список выполненых задач (разделенных по категориям) со сроком выполнения (ведение статистики для корректировки будущих предсказаний)" style="rounded=0;whiteSpace=wrap;html=1;" vertex="1" parent="1">
          <mxGeometry x="940" y="1070" width="300" height="80" as="geometry" />
        </mxCell>
        <mxCell id="RAgE10tFo2IL5p6Xvea5-42" style="edgeStyle=none;curved=1;rounded=0;orthogonalLoop=1;jettySize=auto;html=1;entryX=1;entryY=0.5;entryDx=0;entryDy=0;fontSize=12;startSize=8;endSize=8;" edge="1" parent="1" source="RAgE10tFo2IL5p6Xvea5-41" target="RAgE10tFo2IL5p6Xvea5-41">
          <mxGeometry relative="1" as="geometry" />
        </mxCell>
        <mxCell id="RAgE10tFo2IL5p6Xvea5-43" value="Запись вытекающих из неё задач в беклог" style="rounded=0;whiteSpace=wrap;html=1;" vertex="1" parent="1">
          <mxGeometry x="940" y="1170" width="180" height="60" as="geometry" />
        </mxCell>
        <mxCell id="RAgE10tFo2IL5p6Xvea5-44" value="Создание способа поощрения исполнителя (цифровое или физическое)" style="rounded=0;whiteSpace=wrap;html=1;" vertex="1" parent="1">
          <mxGeometry x="945" y="1260" width="185" height="60" as="geometry" />
        </mxCell>
        <mxCell id="RAgE10tFo2IL5p6Xvea5-51" value="Фиксирование изменений в GIT" style="rounded=0;whiteSpace=wrap;html=1;" vertex="1" parent="1">
          <mxGeometry x="480" y="980" width="120" height="60" as="geometry" />
        </mxCell>
        <mxCell id="RAgE10tFo2IL5p6Xvea5-52" value="Запись возникающих проблем" style="rounded=0;whiteSpace=wrap;html=1;" vertex="1" parent="1">
          <mxGeometry x="480" y="1060" width="150" height="60" as="geometry" />
        </mxCell>
        <mxCell id="RAgE10tFo2IL5p6Xvea5-53" value="Контролирование сроков выполнения задачи другими участниками команды" style="rounded=0;whiteSpace=wrap;html=1;" vertex="1" parent="1">
          <mxGeometry x="480" y="1140" width="180" height="60" as="geometry" />
        </mxCell>
        <mxCell id="RAgE10tFo2IL5p6Xvea5-54" value="Несколько раз собираться с командой и рассказывать прогресс выполнения задачи и возникающих проблем" style="rounded=0;whiteSpace=wrap;html=1;" vertex="1" parent="1">
          <mxGeometry x="680" y="1220" width="190" height="60" as="geometry" />
        </mxCell>
        <mxCell id="RAgE10tFo2IL5p6Xvea5-62" style="edgeStyle=none;curved=1;rounded=0;orthogonalLoop=1;jettySize=auto;html=1;fontSize=12;startSize=8;endSize=8;" edge="1" parent="1" source="RAgE10tFo2IL5p6Xvea5-60" target="RAgE10tFo2IL5p6Xvea5-54">
          <mxGeometry relative="1" as="geometry" />
        </mxCell>
        <mxCell id="RAgE10tFo2IL5p6Xvea5-60" value="Во время решения задачи общаться с командой" style="rounded=0;whiteSpace=wrap;html=1;" vertex="1" parent="1">
          <mxGeometry x="480" y="1220" width="120" height="60" as="geometry" />
        </mxCell>
      </root>
    </mxGraphModel>
  </diagram>
</mxfile>
